<?xml version="1.0" encoding="utf-8"?>
<!-- Generator: Adobe Illustrator 20.0.0, SVG Export Plug-In . SVG Version: 6.00 Build 0)  -->
<svg version="1.1" id="Layer_1" xmlns="http://www.w3.org/2000/svg" xmlns:xlink="http://www.w3.org/1999/xlink" x="0px" y="0px"
	 viewBox="0 0 503.3 141.4" style="enable-background:new 0 0 503.3 141.4;" xml:space="preserve">
<style type="text/css">
	.st0{fill:#ED2024;}
</style>
<g>
	<path d="M139.1,83.7c2.6-0.9,4.9-1.7,7.3-2.9c1.6-0.8,2.4-1.3,3.2-2.2c1,0.9,2,2.1,2.5,2.7c0.1,0.2,0.2,0.4,0.2,0.5
		c0,0.2-0.1,0.4-0.5,0.5c-0.8,0.2-1.7,0.6-2.5,1c-3,1.3-6.3,2.5-10.3,3.7v4c0,1.4,0.2,1.9,1,2.1c0.8,0.2,1.9,0.3,3.8,0.3
		c2.8,0,5.3-0.2,8.4-0.7c0.4-0.1,0.5,0.1,0.5,0.4c0.1,0.8,0.2,2,0.2,2.6c0,0.4-0.2,0.5-0.6,0.5c-3.4,0.4-5.1,0.5-8.9,0.5
		c-2.7,0-4.4-0.3-5.7-0.8c-1.5-0.6-2.1-2-2.1-4.5v-11c0-2.8-0.1-4-0.3-5.5c1.4,0.1,2.8,0.3,3.8,0.6c0.4,0.1,0.5,0.3,0.5,0.5
		s-0.1,0.4-0.2,0.6c-0.2,0.5-0.3,1.3-0.3,2.7V83.7z M151.6,75c0.1-0.1,0.3-0.1,0.4,0.1c0.9,0.7,2,1.9,2.8,3.2
		c0.1,0.2,0.1,0.3-0.1,0.5l-1.3,0.9c-0.2,0.1-0.4,0.1-0.5-0.1c-0.9-1.4-1.9-2.5-3-3.5L151.6,75z M154.3,73.1
		c0.2-0.1,0.3-0.1,0.4,0.1c1.1,0.8,2.2,2,2.8,3.1c0.1,0.2,0.1,0.4-0.1,0.5l-1.2,0.9c-0.2,0.2-0.4,0.1-0.5-0.1
		c-0.8-1.3-1.8-2.4-3-3.4L154.3,73.1z"/>
	<path d="M178.4,78c0.8,0,1.2-0.1,1.5-0.4c0.1-0.1,0.2-0.1,0.4-0.1c0.1,0,0.3,0.1,0.5,0.2c0.7,0.5,1.4,1,2,1.6
		c0.3,0.2,0.4,0.5,0.4,0.7c0,0.2-0.1,0.4-0.4,0.6c-0.4,0.3-0.7,0.7-1,1.3c-2,4.1-3.9,7-5.9,9.2c-2.6,2.9-6.1,5.8-9.1,7.4
		c-0.2,0.1-0.3,0.1-0.5,0.1c-0.2,0-0.4-0.1-0.7-0.3c-0.7-0.6-1.7-1-2.8-1.4c4.7-2.6,7-4.5,10-7.6c2.4-2.6,3.7-4.7,5.5-8.5l-7.2,0.2
		c-2.5,3-3.9,4.7-5.6,6.1c-0.2,0.2-0.4,0.3-0.6,0.3c-0.1,0-0.3-0.1-0.4-0.2c-0.7-0.5-1.9-1.1-2.9-1.3c3.9-3.2,6.2-5.9,8-8.9
		c1-1.7,1.4-2.6,1.8-4c1.7,0.6,2.8,1.1,3.5,1.6c0.2,0.1,0.3,0.3,0.3,0.5c0,0.2-0.1,0.4-0.3,0.5c-0.3,0.2-0.5,0.5-0.7,0.8
		c-0.3,0.5-0.6,1-1,1.5L178.4,78z"/>
	<path d="M207.5,77.4c0.9,0,1.3-0.2,1.6-0.4c0.2-0.1,0.4-0.2,0.5-0.2c0.1,0,0.3,0.1,0.5,0.2c0.7,0.4,1.5,1.2,2,1.8
		c0.2,0.2,0.2,0.4,0.2,0.5c0,0.2-0.1,0.4-0.3,0.6c-0.3,0.3-0.6,0.6-0.9,1.1c-1.3,2.5-2.7,5-4.4,7.2c1.2,1,2.4,2,3.2,3
		c0.1,0.1,0.2,0.3,0.2,0.4c0,0.1-0.1,0.3-0.2,0.4c-0.4,0.5-1.3,1.5-1.9,1.9c-0.1,0.1-0.2,0.1-0.4,0.1c-0.1,0-0.2-0.1-0.3-0.2
		c-0.7-0.8-1.9-2-2.9-2.9c-3,3.3-6.1,5.6-9.5,7.5c-0.3,0.1-0.5,0.3-0.7,0.3c-0.2,0-0.4-0.1-0.6-0.3c-1-0.8-1.8-1.2-2.8-1.5
		c4.6-2.4,7.6-4.5,11-8.1c-1.1-0.9-2.5-1.9-4.3-2.8c0.7-0.7,1.3-1.5,2-2.1c0.1-0.1,0.2-0.2,0.4-0.2c0.1,0,0.2,0.1,0.3,0.1
		c1.1,0.5,2.4,1.4,3.9,2.4c1.4-1.9,2.5-3.8,3.5-5.9l-7.4,0.1c-2.5,3.1-4.4,5.2-6.4,6.7c-0.2,0.1-0.4,0.3-0.6,0.3
		c-0.1,0-0.3-0.1-0.5-0.2c-0.7-0.5-1.5-1-2.5-1.4c4.2-3.3,6.4-6.1,8.5-9.4c1-1.6,1.3-2.4,1.6-3.7c1,0.4,2.6,0.9,3.5,1.5
		c0.2,0.1,0.3,0.3,0.3,0.5c0,0.2-0.1,0.4-0.4,0.6c-0.3,0.2-0.5,0.4-0.6,0.6c-0.2,0.4-0.4,0.7-0.9,1.5L207.5,77.4z"/>
	<path d="M225.7,88c-3,0-4.1,0.4-4.4,0.4c-0.4,0-0.6-0.2-0.7-0.6c-0.1-0.7-0.3-2.1-0.4-3.6c1.9,0.3,3.4,0.4,6.5,0.4h9.6
		c2.3,0,4.6-0.1,6.9-0.1c0.4,0,0.5,0.1,0.5,0.4c0.1,0.9,0.1,1.9,0,2.8c0,0.4-0.1,0.5-0.5,0.4c-2.2,0-4.5-0.1-6.7-0.1H225.7z"/>
	<path d="M267.2,77.4c0.9,0,1.3-0.2,1.6-0.4c0.2-0.1,0.4-0.2,0.5-0.2c0.1,0,0.3,0.1,0.5,0.2c0.7,0.4,1.5,1.2,2,1.8
		c0.2,0.2,0.2,0.4,0.2,0.5c0,0.2-0.1,0.4-0.3,0.6c-0.3,0.3-0.6,0.6-0.9,1.1c-1.3,2.5-2.7,5-4.4,7.2c1.2,1,2.4,2,3.2,3
		c0.1,0.1,0.2,0.3,0.2,0.4c0,0.1-0.1,0.3-0.2,0.4c-0.4,0.5-1.3,1.5-1.9,1.9c-0.1,0.1-0.2,0.1-0.4,0.1c-0.1,0-0.2-0.1-0.3-0.2
		c-0.7-0.8-1.9-2-2.9-2.9c-3,3.3-6.1,5.6-9.5,7.5c-0.3,0.1-0.5,0.3-0.7,0.3c-0.2,0-0.4-0.1-0.6-0.3c-1-0.8-1.8-1.2-2.8-1.5
		c4.6-2.4,7.6-4.5,11-8.1c-1.1-0.9-2.5-1.9-4.3-2.8c0.7-0.7,1.3-1.5,2-2.1c0.1-0.1,0.2-0.2,0.4-0.2c0.1,0,0.2,0.1,0.3,0.1
		c1.1,0.5,2.4,1.4,3.9,2.4c1.4-1.9,2.5-3.8,3.5-5.9l-7.4,0.1c-2.5,3.1-4.4,5.2-6.4,6.7c-0.2,0.1-0.4,0.3-0.6,0.3
		c-0.1,0-0.3-0.1-0.5-0.2c-0.7-0.5-1.5-1-2.5-1.4c4.2-3.3,6.4-6.1,8.5-9.4c1-1.6,1.3-2.4,1.6-3.7c1,0.4,2.6,0.9,3.5,1.5
		c0.2,0.1,0.3,0.3,0.3,0.5c0,0.2-0.1,0.4-0.4,0.6c-0.3,0.2-0.5,0.4-0.6,0.6c-0.2,0.4-0.4,0.7-0.9,1.5L267.2,77.4z"/>
	<path d="M281.9,76.3c0.1-0.1,0.3-0.2,0.4-0.2c0.1,0,0.2,0.1,0.4,0.1c1.5,0.8,4,2.6,5.7,4.2c0.2,0.2,0.3,0.3,0.3,0.4
		c0,0.1-0.1,0.2-0.2,0.4c-0.4,0.6-1.4,1.8-1.9,2.2c-0.1,0.1-0.2,0.2-0.4,0.2s-0.2-0.1-0.4-0.2c-1.8-1.9-3.9-3.6-6.1-4.9
		C280.5,77.8,281.4,76.9,281.9,76.3z M284.5,92.1c3.6-1.9,5.6-3.1,8.6-5.6c3.6-3,5.6-4.9,8.2-8.1c0.2,1.5,0.4,2.5,0.8,3.5
		c0.1,0.2,0.1,0.4,0.1,0.6c0,0.3-0.1,0.5-0.5,0.9c-1.6,1.9-4.2,4.2-6.9,6.3c-2.5,1.9-5,3.6-9,5.9c-1.3,0.8-1.7,1.1-2,1.4
		c-0.2,0.2-0.4,0.3-0.5,0.3c-0.1,0-0.3-0.1-0.5-0.3c-0.7-0.8-1.7-2.1-2.4-3.3C282,93.1,283,92.9,284.5,92.1z"/>
	<path d="M323.4,85.2c-0.2,3.3-0.6,5.4-1.8,7.6c-1.2,2.3-3.3,4.5-5.3,5.6c-0.3,0.2-0.6,0.4-0.9,0.4c-0.2,0-0.4-0.1-0.6-0.3
		c-0.6-0.6-1.6-1.2-2.7-1.6c2.9-1.6,4.7-3,5.9-5.3c1.1-2,1.4-3.6,1.5-6.4h-5.7c-1.5,0-3,0.1-4.5,0.2c-0.3,0-0.4-0.2-0.4-0.6
		c-0.1-0.8-0.2-2-0.2-2.9c1.7,0.1,3.3,0.1,5.1,0.1h13.4c2.3,0,4.1-0.1,5.8-0.2c0.3,0,0.3,0.2,0.3,0.6c0,0.4,0,1.9,0,2.3
		c0,0.4-0.2,0.5-0.4,0.5c-1.6-0.1-3.6-0.1-5.7-0.1H323.4z M317.4,78.3c-1.4,0-2.6,0.1-4.2,0.1c-0.4,0-0.5-0.1-0.5-0.5
		c-0.1-0.7-0.1-1.8-0.2-2.9c2.1,0.1,3.6,0.1,5,0.1h5.5c1.7,0,3.6,0,5.1-0.1c0.3,0,0.4,0.2,0.4,0.6c0.1,0.7,0.1,1.5,0,2.2
		c0,0.4-0.1,0.6-0.4,0.6c-1.6-0.1-3.4-0.1-5-0.1H317.4z M330.3,73.1c0.1-0.1,0.3-0.1,0.4,0.1c0.9,0.8,1.8,2.1,2.5,3.5
		c0.1,0.2,0.1,0.3-0.1,0.5l-1.3,0.8c-0.2,0.1-0.4,0.1-0.5-0.1c-0.8-1.5-1.6-2.7-2.7-3.7L330.3,73.1z M333.1,71.4
		c0.2-0.1,0.3-0.1,0.4,0.1c1,1,2,2.2,2.5,3.3c0.1,0.2,0.1,0.4-0.1,0.5l-1.3,0.8c-0.3,0.1-0.4,0-0.5-0.1c-0.7-1.3-1.5-2.6-2.7-3.7
		L333.1,71.4z"/>
	<path d="M361.4,80.8c1.5,0,3.1,0,4.5-0.1c0.4,0,0.4,0.1,0.4,0.5c0.1,0.7,0.1,1.6,0,2.4c0,0.4-0.1,0.5-0.5,0.5c-1,0-2.8,0-4.3,0
		h-1.2c-0.2,4.3-0.8,6.8-2.3,9.2c-1.5,2.5-3.9,4.3-7.1,5.6c-0.4,0.2-0.7,0.3-0.8,0.3c-0.2,0-0.3-0.1-0.6-0.3
		c-0.9-0.9-1.5-1.3-2.5-1.8c4.2-1.3,6.5-2.8,8.1-5.3c1.2-1.9,1.6-4,1.8-7.6h-6.4V85c0,1.8,0,3.4,0.1,5c0,0.3-0.2,0.4-0.5,0.4
		c-0.8,0.1-1.8,0.1-2.6,0c-0.4,0-0.6-0.1-0.5-0.4c0.1-1.6,0.1-3,0.1-4.9V84h-0.9c-1.6,0-4,0.1-4.9,0.1c-0.2,0-0.3-0.2-0.4-0.6
		c-0.1-0.6-0.1-1.7-0.2-2.9c1.3,0.1,3.2,0.1,5.5,0.1h0.9v-2.2c0-1.9-0.1-2.7-0.4-4.4c1.6,0.1,3,0.3,3.6,0.5c0.3,0.1,0.4,0.2,0.4,0.4
		c0,0.2-0.1,0.4-0.2,0.6c-0.2,0.5-0.2,0.8-0.2,2.9v2.2h6.4l0-2.9c0-1.7-0.1-3-0.3-4.1c1.1,0.1,2.8,0.3,3.5,0.5
		c0.4,0.1,0.5,0.2,0.5,0.5c0,0.1,0,0.3-0.1,0.5c-0.2,0.6-0.2,1.3-0.2,2.6v2.8H361.4z M362.9,73.5c0.1-0.1,0.3-0.1,0.4,0.1
		c0.8,0.9,1.7,2.2,2.3,3.6c0.1,0.2,0.1,0.3-0.2,0.4l-1.2,0.6c-0.2,0.1-0.4,0.1-0.5-0.2c-0.7-1.5-1.4-2.8-2.4-3.9L362.9,73.5z
		 M365.7,72.2c0.2-0.1,0.3-0.1,0.4,0.1c1,1,1.8,2.4,2.3,3.5c0.1,0.2,0.1,0.4-0.2,0.5L367,77c-0.3,0.1-0.4,0-0.5-0.1
		c-0.6-1.4-1.4-2.7-2.4-3.9L365.7,72.2z"/>
	<path d="M387.8,91.7c0,2.1,0,3.8,0.1,6.2c0,0.4-0.1,0.5-0.4,0.5c-1,0.1-2,0.1-3,0c-0.3,0-0.4-0.1-0.4-0.5c0-2.2,0.1-4.1,0.1-6.1v-7
		c-2.6,2.2-5.8,4.5-8.2,5.7c-0.1,0.1-0.3,0.1-0.4,0.1c-0.2,0-0.4-0.1-0.6-0.3c-0.7-0.7-1.7-1.3-2.6-1.8c4.1-2.1,6.7-3.9,9.4-6.1
		c2.4-1.9,4.5-4,6.4-6.2c1-1.2,1.4-1.8,1.9-3.1c1.3,0.7,2.7,1.6,3.3,2.1c0.2,0.1,0.2,0.3,0.2,0.4c0,0.2-0.2,0.5-0.4,0.7
		c-0.5,0.3-1,0.8-1.8,1.6c-1.2,1.4-2.3,2.6-3.5,3.8V91.7z"/>
	<path d="M403.4,76.3c0.1-0.1,0.3-0.2,0.4-0.2c0.1,0,0.2,0.1,0.4,0.1c1.5,0.8,4,2.6,5.7,4.2c0.2,0.2,0.3,0.3,0.3,0.4
		c0,0.1-0.1,0.2-0.2,0.4c-0.4,0.6-1.4,1.8-1.9,2.2c-0.1,0.1-0.2,0.2-0.4,0.2c-0.1,0-0.2-0.1-0.4-0.2c-1.8-1.9-3.9-3.6-6.1-4.9
		C402,77.8,402.8,76.9,403.4,76.3z M406,92.1c3.6-1.9,5.6-3.1,8.6-5.6c3.6-3,5.6-4.9,8.2-8.1c0.2,1.5,0.4,2.5,0.8,3.5
		c0.1,0.2,0.1,0.4,0.1,0.6c0,0.3-0.1,0.5-0.5,0.9c-1.6,1.9-4.2,4.2-6.9,6.3c-2.5,1.9-5,3.6-9,5.9c-1.3,0.8-1.7,1.1-2,1.4
		c-0.2,0.2-0.4,0.3-0.5,0.3c-0.1,0-0.3-0.1-0.5-0.3c-0.7-0.8-1.7-2.1-2.4-3.3C403.5,93.1,404.4,92.9,406,92.1z"/>
</g>
<g>
	<path class="st0" d="M444.3,115l10.1-19.3c0.4-0.8,1.6-0.8,2,0l10.1,19.3c0.4,0.7-0.2,1.5-1,1.5h-20.2
		C444.5,116.5,443.9,115.7,444.3,115z"/>
	<path class="st0" d="M493.3,106.9L484.5,90c-0.2-0.3-0.2-0.6,0-0.9l8.9-16.9c0.5-1,2.1-0.6,2.1,0.5v33.8
		C495.4,107.5,493.8,107.9,493.3,106.9z"/>
	<path class="st0" d="M463.6,78.1l7.6-14.5c0.2-0.4,0.6-0.6,1-0.6h20.4c0.8,0,1.3,0.8,1,1.5l-24,45.7c-0.4,0.8-1.6,0.8-2,0
		l-10.2-19.4c-0.2-0.3-0.2-0.6,0-0.9L463.6,78.1L463.6,78.1z"/>
	<path class="st0" d="M454,84.1l-10.3-19.6c-0.4-0.7,0.2-1.5,1-1.5h20.5c0.8,0,1.3,0.8,1,1.5l0,0l-10.3,19.6
		C455.5,84.8,454.4,84.8,454,84.1z"/>
	<path class="st0" d="M444,72.2l8.9,16.9c0.2,0.3,0.2,0.6,0,0.9l-8.9,16.9c-0.5,1-2.1,0.6-2.1-0.5V72.6
		C441.9,71.5,443.5,71.2,444,72.2z"/>
	<path class="st0" d="M470.9,115L481,95.8c0.4-0.8,1.6-0.8,2,0L493,115c0.4,0.7-0.2,1.5-1,1.5h-20.2
		C471,116.5,470.5,115.7,470.9,115z"/>
</g>
<g>
	<path d="M147.4,46.6h-5.6l-6.4-19.9h5.1l2.1,8.3c0.7,2.7,1.2,5,1.9,7.7h0.5c0.8-2.7,1.3-5.1,2.1-7.8l2.2-8.2h4.6L147.4,46.6z"/>
	<path d="M166.3,23.2h-5.1v-4.7h5.1V23.2z M166.1,46.6h-4.7V26.7h4.7V46.6z"/>
	<path d="M187.7,33.6c-0.5-2.7-1.7-4-3.6-4c-3,0-4.6,2.5-4.6,7.1c0,4.6,1.6,7.1,4.6,7.1c2.2,0,3.5-1.4,3.9-4.2l4.4,1.2
		c-1,4.1-4,6.3-8.4,6.3c-5.9,0-9.3-3.9-9.3-10.3s3.6-10.5,9.3-10.5c4.4,0,7.4,2.3,8.3,6.3L187.7,33.6z"/>
	<path d="M205.9,26.7h4.6V30h-4.6v10.9c0,2,0.8,2.9,2.6,2.9c0.8,0,1.5,0,2.4-0.2l-0.2,3.3c-1.3,0.2-2.4,0.2-3.7,0.2
		c-3.9,0-5.7-1.6-5.7-5.3V30h-3.1v-3.3h3.1v-5.5l4.7-1V26.7z"/>
	<path d="M235.7,36.6c0,6.4-3.7,10.5-9.3,10.5s-9.3-3.9-9.3-10.3s3.8-10.5,9.3-10.5C231.9,26.3,235.7,30.2,235.7,36.6z M221.8,36.7
		c0,4.6,1.4,7.1,4.5,7.1c3,0,4.5-2.5,4.5-7.1c0-4.6-1.4-7.1-4.5-7.1S221.8,32.1,221.8,36.7z"/>
	<path d="M254.7,30.5c-2.5,0-4.5,1.6-5.9,5v11h-4.7V26.7h4.4v4.9c1.5-3.9,3.6-5.3,6.4-5.3L254.7,30.5z"/>
	<path d="M282.7,26.7h4.6V30h-4.6v10.9c0,2,0.8,2.9,2.6,2.9c0.8,0,1.5,0,2.4-0.2l-0.2,3.3c-1.3,0.2-2.4,0.2-3.7,0.2
		c-3.9,0-5.7-1.6-5.7-5.3V30H275v-3.3h3.1v-5.5l4.7-1V26.7z"/>
	<path d="M294.4,31.7c1.1-3.6,4.1-5.5,8.5-5.5c5.3,0,8,2.2,8,6.6v7.9c0,2.3,0.2,4.2,0.3,5.9h-4.4c-0.2-0.9-0.2-1.4-0.3-2.6
		c-1.5,2-3.9,3.1-6.5,3.1c-3.8,0-6.3-2.3-6.3-5.9c0-3.5,2.3-5.7,6.7-6.5c1.8-0.3,3.8-0.5,5.9-0.6v-1.1c0-2.5-1.1-3.5-3.6-3.5
		c-2,0-3.5,1.2-3.9,3.5L294.4,31.7z M306.4,36.8c-2,0-3.5,0.3-4.7,0.6c-2.2,0.5-3.4,1.6-3.4,3.4c0,1.9,1.2,3,3.3,3
		c1.8,0,3.6-1.1,4.8-3.3V36.8z"/>
	<path d="M325.2,30.2c1.7-2.4,4.1-3.9,6.8-3.9c3.4,0,5.9,2.1,5.9,6v14.3H333V33.5c0-2.3-1-3.3-2.9-3.3c-1.7,0-3.5,1.3-4.8,3.4v13
		h-4.7V26.7h4.6V30.2z"/>
	<path d="M378.9,46.6h-4.5v-2.7c-1.4,2.2-3.3,3.3-5.8,3.3c-4.4,0-7.9-3.7-7.9-10.5s3.5-10.2,7.9-10.2c2.3,0,4.4,1.1,5.6,3.1V18h4.7
		V46.6z M374.2,33.3c-1-2.3-2.6-3.4-4.3-3.4c-2.4,0-4.4,2.1-4.4,6.8c0,4.8,2,6.9,4.5,6.9c1.7,0,3.2-1.2,4.2-3.3V33.3z"/>
	<path d="M392.1,37.6c0,3.8,1.8,6.3,5.2,6.3c2.1,0,3.6-1.2,4.4-3.8l4.3,1.2c-1.3,3.8-4.1,5.8-8.7,5.8c-6.2,0-9.8-3.8-9.8-10.3
		c0-6.5,3.8-10.5,9.3-10.5c5.3,0,9.2,3.7,9.2,10.4v0.9H392.1z M401.4,34.6c-0.2-3.3-1.7-5.2-4.5-5.2c-2.9,0-4.5,2-4.7,5.2H401.4z"/>
	<path d="M424.9,32.6c-0.5-2.1-1.8-3.2-3.7-3.2c-2,0-3.2,0.9-3.2,2.1c0,1.6,0.7,2.2,3.7,3l1.7,0.4c4.7,1.2,6.4,2.8,6.4,6
		c0,3.5-2.7,6.1-8.3,6.1c-4.4,0-7.3-1.5-8.6-5l4.4-1.5c0.7,2.2,2.3,3.3,4.3,3.3c2.7,0,3.8-1.1,3.8-2.6c0-1.6-0.7-2.1-4-3l-1.7-0.5
		c-4.5-1.2-6-2.7-6-6c0-3.2,2.7-5.6,7.7-5.6c4.3,0,6.9,1.8,8.1,5.1L424.9,32.6z"/>
	<path d="M443.1,23.2H438v-4.7h5.1V23.2z M442.9,46.6h-4.7V26.7h4.7V46.6z"/>
	<path d="M470.1,27.6c-2.1,0-2.8,0.3-3.7,1c1.1,1.1,1.7,2.5,1.7,4c0,4.1-3.3,6.5-8.1,6.5c-0.9,0-1.8-0.1-2.7-0.3
		c-0.9,0.4-1.5,1-1.5,1.7c0,0.8,0.5,1.2,2.9,1.4l4.7,0.4c5.4,0.5,7.1,2.2,7.1,5.1c0,3.5-3.6,6-10.4,6c-6,0-9.3-2-9.3-4.8
		c0-1.7,1.5-3.1,3.8-3.9c-1.9-0.4-2.9-1.4-2.9-2.9c0-1.6,0.9-2.8,3.2-4.1c-1.9-1.2-2.9-2.9-2.9-5.2c0-3.8,3.3-6.4,8.1-6.4
		c1.6,0,3.2,0.3,4.4,0.9c1.4-2.4,3-3.3,6-3.3L470.1,27.6z M457.5,45.4c-1.8,0.5-2.8,1.5-2.8,2.7c0,1.7,2.3,2.7,5.7,2.7
		c4,0,6-1.2,6-2.6c0-1.3-0.7-2-3.8-2.3L457.5,45.4z M456.3,32.6c0,2.6,1.6,3.9,3.8,3.9c2.1,0,3.8-1.3,3.8-3.9c0-2.3-1.7-3.7-3.8-3.7
		C457.9,29,456.3,30.3,456.3,32.6z"/>
	<path d="M482.8,30.2c1.7-2.4,4.1-3.9,6.8-3.9c3.4,0,5.9,2.1,5.9,6v14.3h-4.8V33.5c0-2.3-1-3.3-2.9-3.3c-1.7,0-3.5,1.3-4.8,3.4v13
		h-4.7V26.7h4.6V30.2z"/>
</g>
<rect x="8.3" y="126" width="487.1" height="9"/>
<g>
	<path d="M17,117h94.2h5.7c1,0,1.9-0.8,1.9-1.8v-5.5V16.3v-5.5c0-1-0.8-1.8-1.9-1.8h-5.7H17h-5.7c-1,0-1.9,0.8-1.9,1.8v5.5v93.4v5.5
		c0,1,0.8,1.8,1.9,1.8H17z M22,107.1l17.5-33.3c0.7-1.3,2.7-1.3,3.4,0l17.5,33.3c0.6,1.2-0.3,2.6-1.7,2.6H23.7
		C22.3,109.7,21.3,108.3,22,107.1z M106.8,93L91.5,63.8c-0.3-0.5-0.3-1.1,0-1.6L106.8,33c0.9-1.7,3.6-1.1,3.6,0.8v58.4
		C110.4,94.1,107.7,94.7,106.8,93z M55.4,43.2l13.2-25.1c0.3-0.6,1-1,1.7-1h35.3c1.4,0,2.3,1.4,1.7,2.6L65.8,98.8
		c-0.7,1.3-2.7,1.3-3.4,0L44.8,65.2c-0.3-0.5-0.3-1.1,0-1.6L55.4,43.2L55.4,43.2z M38.7,53.6L21,19.7c-0.6-1.2,0.3-2.6,1.7-2.6h35.5
		c1.4,0,2.3,1.4,1.7,2.6v0L42.1,53.6C41.4,54.9,39.4,54.9,38.7,53.6z M21.4,33l15.3,29.2c0.3,0.5,0.3,1.1,0,1.6L21.4,93
		c-0.9,1.7-3.6,1.1-3.6-0.8V33.8C17.8,31.9,20.5,31.3,21.4,33z M68,107.1l17.5-33.3c0.7-1.3,2.7-1.3,3.4,0l17.5,33.3
		c0.6,1.2-0.3,2.6-1.7,2.6H69.6C68.2,109.7,67.3,108.3,68,107.1z"/>
</g>
</svg>
